<svg width="30" height="19" viewBox="0 0 30 19" fill="none" xmlns="http://www.w3.org/2000/svg">
<g clip-path="url(#clip0_401_265)">
<path d="M10.9336 1.82031H19.0371V16.381H10.9336V1.82031Z" fill="#FF5F00"/>
<path d="M11.4479 9.10106C11.4479 6.14266 12.8371 3.51859 14.9722 1.82066C13.4031 0.585859 11.4223 -0.160156 9.26133 -0.160156C4.14176 -0.160156 0 3.9816 0 9.10106C0 14.2205 4.14176 18.3623 9.26121 18.3623C11.4221 18.3623 13.403 17.6163 14.9722 16.3813C12.8371 14.7092 11.4479 12.0595 11.4479 9.10106Z" fill="#EB001B"/>
<path d="M29.9683 9.10106C29.9683 14.2204 25.8266 18.3623 20.7071 18.3623C18.5462 18.3623 16.5654 17.6163 14.9961 16.3813C17.157 14.6835 18.5205 12.0595 18.5205 9.10106C18.5205 6.14266 17.1312 3.51859 14.9961 1.82066C16.5652 0.585859 18.5462 -0.160156 20.7071 -0.160156C25.8266 -0.160156 29.9683 4.00738 29.9683 9.10106Z" fill="#F79E1B"/>
</g>
<defs>
<clipPath id="clip0_401_265">
<rect width="30" height="19" fill="white"/>
</clipPath>
</defs>
</svg>
