<svg width="34" height="13" viewBox="0 0 34 13" fill="none" xmlns="http://www.w3.org/2000/svg">
<g clip-path="url(#clip0_401_271)">
<path d="M17.584 4.49937C17.5646 6.02884 18.947 6.8823 19.9884 7.38977C21.0584 7.9104 21.4177 8.24429 21.4135 8.70993C21.4055 9.42247 20.56 9.73697 19.7689 9.74919C18.3886 9.77057 17.586 9.37652 16.9479 9.07848L16.4507 11.4052C17.0908 11.7002 18.2762 11.9575 19.5054 11.9688C22.3907 11.9688 24.2784 10.5445 24.2886 8.3362C24.2999 5.53359 20.4121 5.37846 20.4387 4.12577C20.4478 3.74593 20.8103 3.34059 21.6045 3.23752C21.9976 3.18546 23.0828 3.14562 24.3132 3.7122L24.7961 1.46102C24.1344 1.2201 23.284 0.989407 22.2252 0.989407C19.5095 0.989407 17.5994 2.43308 17.584 4.49937ZM29.4363 1.18331C28.9094 1.18331 28.4654 1.49064 28.2673 1.96226L24.1457 11.8034H27.0289L27.6027 10.2177H31.1259L31.4588 11.8034H34L31.7824 1.18331H29.4363ZM29.8396 4.0522L30.6717 8.04016H28.3929L29.8396 4.0522ZM14.0882 1.18344L11.8155 11.8033H14.563L16.8346 1.18318L14.0882 1.18344ZM10.0238 1.18344L7.16404 8.41177L6.00724 2.2656C5.87151 1.57949 5.33548 1.18331 4.74021 1.18331H0.0654766L0 1.4917C0.959703 1.69995 2.05009 2.03584 2.7107 2.39523C3.11498 2.61477 3.23027 2.80668 3.36308 3.32837L5.55409 11.8034H8.4575L12.9088 1.18331L10.0238 1.18344Z" fill="url(#paint0_linear_401_271)"/>
</g>
<defs>
<linearGradient id="paint0_linear_401_271" x1="1563.12" y1="33.9933" x2="1594.9" y2="-1093.6" gradientUnits="userSpaceOnUse">
<stop stop-color="#222357"/>
<stop offset="1" stop-color="#254AA5"/>
</linearGradient>
<clipPath id="clip0_401_271">
<rect width="34" height="11.0234" fill="white" transform="translate(0 0.988281)"/>
</clipPath>
</defs>
</svg>
